<svg width="500" height="500" viewBox="0 0 500 500" fill="none" xmlns="http://www.w3.org/2000/svg">
<g id="creature-2">
<path id="main-shape-shadow" d="M156.483 173.286C126.883 191.686 233.926 225.907 233.926 260.907C230.26 306.241 146.032 397.207 133.483 413.286C47.9262 522.907 270.426 407.907 294.483 464.286C323.315 531.854 469.04 478.665 414.483 329.286C359.926 179.907 402.483 146.286 383.483 90.2862C364.483 34.2862 236.926 37.9073 209.926 39.9073C182.926 41.9073 255.926 102.907 249.926 131.907C243.926 160.907 193.483 150.286 156.483 173.286Z" fill="#C4C4C4"/>
<path id="main-shape" d="M138.557 160.379C108.957 178.779 216 213 216 248C212.333 293.333 128.106 384.3 115.557 400.379C30 510 252.5 395 276.557 451.379C305.388 518.947 451.114 465.758 396.557 316.379C342 167 384.557 133.379 365.557 77.3788C346.557 21.3788 219 25 192 27C165 29 238 90 232 119C226 148 175.557 137.379 138.557 160.379Z" fill="white" stroke="black" stroke-width="8"/>
</g>
</svg>
