<svg width="500" height="500" viewBox="0 0 500 500" fill="none" xmlns="http://www.w3.org/2000/svg">
<path id="main-shape" d="M359.624 140.472C335.644 89.9547 295.5 57 250 57C204.5 57 164.356 89.9547 140.376 140.472C90.003 164.501 57 204.597 57 250C57 295.403 90.003 335.499 140.376 359.527C164.356 410.045 204.5 443 250 443C295.5 443 335.644 409.852 359.624 359.335C409.997 335.499 443 295.403 443 250C443 204.597 409.997 164.501 359.624 140.472ZM250 318.611C236.43 318.611 223.165 314.588 211.881 307.048C200.598 299.509 191.804 288.794 186.611 276.256C181.418 263.719 180.059 249.924 182.707 236.615C185.354 223.305 191.889 211.08 201.484 201.484C211.08 191.889 223.305 185.354 236.615 182.707C249.924 180.059 263.719 181.418 276.256 186.611C288.794 191.804 299.509 200.598 307.048 211.881C314.588 223.165 318.611 236.43 318.611 250C318.611 268.197 311.383 285.649 298.516 298.516C285.649 311.383 268.197 318.611 250 318.611Z" fill="#931815"/>
</svg>
