<?xml version="1.0" encoding="utf-8"?>
<!-- Generator: Adobe Illustrator 26.0.1, SVG Export Plug-In . SVG Version: 6.00 Build 0)  -->
<svg version="1.1" id="Layer_1" xmlns="http://www.w3.org/2000/svg" xmlns:xlink="http://www.w3.org/1999/xlink" x="0px" y="0px"
	 viewBox="0 0 1000 1000" style="enable-background:new 0 0 1000 1000;" xml:space="preserve">
<g>
	<path d="M669,50.6C613.7,21.4,549.2,8.4,482.5,12.8C415.8,17.3,352,38.9,298,75.3c-92.2,62.7-138.7,160.5-127.4,268.4
		c1.3,12,10.8,19.8,22.6,18.5c12-1.3,19.8-10.8,18.5-22.5c-9.7-92.6,29-173.4,109-227.6c95.9-65.2,230.5-74.7,327.3-23.3
		c38.8,20.2,70.3,49.1,93.7,86.2c30.5,48.3,45.9,109.2,45.9,181c0,54.8-15.2,101-46.3,141.1c-28,36.1-65.1,63.1-100.9,89.2l-2,1.4
		c-53.8,39.1-104.6,76-113.1,137.5c-20.7,145.5-109.7,221.6-186.9,221.6h-1.2c-66.4-1.2-114.4-56.8-125.3-145.2
		c-1.4-11.7-11.9-19.8-23.9-18.5c-10.8,1.4-18.6,12.1-17.3,23.9c8,61,29.3,108,63.5,139.8c28,26,64.5,40.7,102.9,41.3h1.2
		c24.2,0,48.7-5.5,72.8-16.4c24.8-11.3,47.9-27.7,68.7-48.9c46.2-47.2,77-114,89-193.2c6-44.5,47.9-74.9,96.4-110l1.4-1
		c73.3-53.4,164.4-119.9,164.4-263.5C831.1,214.6,773.5,106.6,669,50.6z"/>
	<path d="M248.6,689c-3.4-2-7.2-3.1-11.1-3.1c-7.7,0-14.9,4.1-18.9,10.7c-6.2,10.4-2.7,23.8,7.7,30c23.7,14.1,50.8,21.5,78.3,21.5
		c26.3,0,52.3-6.7,75.3-19.5c23.7-13.2,43.5-32.5,57.4-55.8c21-35.4,26.9-76.8,16.8-116.6c-10.1-39.7-35.3-73.2-70.9-94.3
		c-9.2-5.5-20.9-9.9-30.2-13.5l-0.5-0.2c-1.1-0.4-2.2-0.8-3.2-1.2l-4.5-1.7v-71.8c0-88.7,72.3-160.9,161.2-160.9
		c88.8,0,161.1,72.2,161.1,160.9c0,12.1,9.9,21.9,22,21.9c12.1,0,21.9-9.8,21.9-21.9c0-112.9-91.9-204.7-205-204.7
		c-113,0-205,91.8-205,204.7v60.3c0,0.3-0.1,6.6-7.3,7.1c-0.5,0-1.2,0.1-1.9,0.1c-1,0-2.4,0.1-3.3,0.2c-11.9,1.3-20.6,12-19.3,24
		c0.6,5.8,3.5,11.1,8.1,14.8c4.6,3.7,10.2,5.3,15.9,4.7c23.7-2.5,47.2,2.6,67.7,14.8c25.3,15,43.2,39,50.5,67.5
		c7.3,28.5,3,58.2-12,83.4C368.5,702.7,300.8,720,248.6,689z"/>
</g>
</svg>
