<svg width="500" height="500" viewBox="0 0 500 500" fill="none" xmlns="http://www.w3.org/2000/svg">
<g id="creature-1">
<path id="main-shape-shadow" d="M154.557 179.379C124.957 197.779 120.057 224.879 120.057 259.879C116.39 305.212 122.757 400.979 131.557 419.379C142.557 442.379 200.557 489.379 292.557 470.379C384.557 451.379 381.557 392.379 412.557 335.379C443.405 278.657 400.976 153.609 381.837 97.205L381.557 96.3788C362.557 40.3788 293.557 47.3788 266.557 49.3788C239.557 51.3788 230.557 67.3788 224.557 96.3788C218.557 125.379 191.557 156.379 154.557 179.379Z" fill="#C4C4C4"/>
<path id="main-shape" d="M138.557 160.379C108.957 178.779 104.057 205.879 104.057 240.879C100.39 286.212 106.757 381.979 115.557 400.379C126.557 423.379 184.557 470.379 276.557 451.379C368.557 432.379 365.557 373.379 396.557 316.379C427.405 259.657 384.976 134.609 365.837 78.205L365.557 77.3788C346.557 21.3788 277.557 28.3788 250.557 30.3788C223.557 32.3788 214.557 48.3788 208.557 77.3788C202.557 106.379 175.557 137.379 138.557 160.379Z" fill="white" stroke="black" stroke-width="18"/>
</g>
</svg>
