<svg width="500" height="500" viewBox="0 0 500 500" fill="none" xmlns="http://www.w3.org/2000/svg">
<path id="main-shape" d="M292.333 140C278.567 133.9 280.133 126.667 265.067 126.667C250 126.667 250 140.633 235.067 140.633C220.133 140.633 215.9 121.167 202.133 127.3C188.367 133.433 199.433 149.833 188.8 161.2C178.167 172.567 167.967 163.033 157.3 174.533C146.633 186.033 153.267 190.1 147.633 204.533C142 218.967 134.133 218.067 134.133 234.167C134.133 250.267 148.1 250.267 148.1 266.367C148.1 282.467 128.767 286.067 134.6 301.067C140.433 316.067 156.667 304.867 167.333 316.233C178 327.6 167.767 337.2 178.433 348.567C189.1 359.933 193.4 353.833 207.667 360.167C221.933 366.5 219.867 373.5 234.933 373.5C250 373.5 250 359.533 264.933 359.533C279.867 359.533 284.1 379 297.867 372.867C311.633 366.733 300.567 350.333 311.2 338.967C321.833 327.6 332.033 337.133 342.7 325.633C353.367 314.133 346.733 310.067 352.367 295.633C358 281.2 365.7 282.1 365.7 266C365.7 249.9 351.733 249.9 351.733 233.8C351.733 217.7 371.067 214.1 365.067 199.1C359.067 184.1 343.333 195.133 332.667 183.767C322 172.4 332.267 162.7 321.533 151.4C311.433 140.767 306.667 146.167 292.333 140Z" fill="#231815"/>
</svg>
