<svg width="500" height="500" viewBox="0 0 500 500" fill="none" xmlns="http://www.w3.org/2000/svg">
<g id="creature-5">
<path id="main-shape" d="M344.823 105C330.408 105.231 316.193 108.407 303.056 114.332C289.919 120.257 278.139 128.806 268.443 139.45C266.062 141.937 263.199 143.916 260.029 145.268C256.859 146.62 253.448 147.318 250 147.318C246.552 147.318 243.141 146.62 239.971 145.268C236.801 143.916 233.938 141.937 231.557 139.45C221.861 128.806 210.081 120.257 196.944 114.332C183.807 108.407 169.592 105.231 155.177 105C90.0245 105 37 170 37 250C37 330 89.9242 395 155.177 395C169.592 394.769 183.807 391.593 196.944 385.668C210.081 379.743 221.861 371.194 231.557 360.55C233.938 358.063 236.801 356.084 239.971 354.732C243.141 353.38 246.552 352.682 250 352.682C253.448 352.682 256.859 353.38 260.029 354.732C263.199 356.084 266.062 358.063 268.443 360.55C278.139 371.194 289.919 379.743 303.056 385.668C316.193 391.593 330.408 394.769 344.823 395C409.976 395 463 330 463 250C463 170 410.076 105 344.823 105Z" fill="#231815"/>
</g>
</svg>
