<svg xmlns="http://www.w3.org/2000/svg" viewBox="0 0 51.02 60"><defs><style>.cls-1{fill:#fd9c0b;}</style></defs><g id="Layer_2" data-name="Layer 2"><g id="Layer_1-2" data-name="Layer 1"><path class="cls-1" d="M30,60A30,30,0,0,1,30,0Z"/><path class="cls-1" d="M29,0a11.39,11.39,0,0,1,0,22.78Z"/><path class="cls-1" d="M29,22.78a8.22,8.22,0,0,1,0,16.44Z"/><path class="cls-1" d="M47.22,41a10,10,0,0,1,0-20Z"/><path class="cls-1" d="M47,21a2.38,2.38,0,1,1,0,4.76Z"/><path class="cls-1" d="M47,25.77a4,4,0,1,1,0,8.08Z"/><path class="cls-1" d="M47,33.85A3.57,3.57,0,1,1,47,41Z"/><path class="cls-1" d="M29,39.22A10.39,10.39,0,0,1,29,60Z"/></g></g></svg>