<svg width="85" height="85" viewBox="0 0 85 85" fill="none" xmlns="http://www.w3.org/2000/svg">
<g id="moss-new-1" clip-path="url(#clip0_38:22)">
<rect width="85" height="85" fill="white"/>
<path id="main-shape" d="M20 0L0 34.6446H40L20 0Z" fill="black"/>
<g id="connectors">
<rect id="origin" x="0.500031" y="0.5" width="4.0505" height="4" fill="#DADADA" fill-opacity="0.6" stroke="#FF0000"/>
<g id="moss-element-1">
<rect id="0_1" x="40" width="5.0505" height="5" fill="#00FF00" fill-opacity="0.6"/>
<rect id="0.5_0" x="20" y="34.64" width="5.0505" height="5" fill="#00FF00" fill-opacity="0.6"/>
<rect id="0.5_0_2" x="-20" y="34.64" width="24" height="24" fill="#00FF00" fill-opacity="0.6"/>
<rect id="0_1_2" x="20" y="-34.64" width="40" height="38" fill="#00FF00" fill-opacity="0.6"/>
<rect id="1_1" x="-20" y="-34.64" width="40" height="38" fill="#00FF00" fill-opacity="0.6"/>
<rect id="1_1_2" x="-40" y="3.05176e-05" width="45" height="39" fill="#00FF00" fill-opacity="0.6"/>
</g>
<g id="moss-element-2">
<rect id="1_0" y="34.64" width="5.0505" height="5" fill="#FF0000" fill-opacity="0.6"/>
<rect id="0_0" y="34.64" width="5.0505" height="5" fill="#FF0000" fill-opacity="0.6"/>
<rect id="0_0_2" x="40" y="34.64" width="5.0505" height="5" fill="#FF0000" fill-opacity="0.6"/>
<rect id="0.5_1" x="20" width="5.0505" height="5" fill="#FF0000" fill-opacity="0.6"/>
<rect id="0_0_3" x="20" width="5.0505" height="5" fill="#FF0000" fill-opacity="0.6"/>
<rect id="1_0_2" x="-20" width="24" height="24" fill="#FF0000" fill-opacity="0.6"/>
<rect id="0.5_1_2" x="-20" width="24" height="24" fill="#FF0000" fill-opacity="0.6"/>
<rect id="1_0_3" x="-40" y="34.64" width="41" height="23" fill="#FF0000" fill-opacity="0.6"/>
<rect id="0.5_1_3" y="-34.64" width="33" height="40" fill="#FF0000" fill-opacity="0.6"/>
</g>
</g>
</g>
<defs>
<clipPath id="clip0_38:22">
<rect width="85" height="85" fill="white"/>
</clipPath>
</defs>
</svg>
